<?xml version="1.0" encoding="utf-8"?>
<!-- Generator: Adobe Illustrator 24.2.3, SVG Export Plug-In . SVG Version: 6.00 Build 0)  -->
<svg version="1.1" id="Layer_1" xmlns="http://www.w3.org/2000/svg" xmlns:xlink="http://www.w3.org/1999/xlink" x="0px" y="0px"
	 viewBox="0 0 1920 1080" style="enable-background:new 0 0 1920 1080;" xml:space="preserve">
<style type="text/css">
	.st0{fill:#FFFFFF;}
	.st1{fill:#191919;}
	.st2{fill:#FF354D;}
	.st3{fill:#E52848;}
	.st4{opacity:0.28;fill:#FF354D;}
	.st5{display:none;}
	.st6{display:inline;}
	.st7{font-family:'Raleway-Bold';}
	.st8{font-size:25px;}
	.st9{display:inline;fill:#FF354D;}
	.st10{font-family:'Raleway-Black';}
	.st11{font-family:'Raleway-SemiBold';}
	.st12{font-size:66.6721px;}
	.st13{font-family:'Raleway-Regular';}
	.st14{letter-spacing:-1;}
	.st15{display:inline;fill:#191919;}
	.st16{font-family:'Raleway-Medium';}
	.st17{font-size:33.3328px;}
	.st18{display:inline;fill:#FFFFFF;}
	.st19{font-size:36.3835px;}
</style>
<g>
	<path class="st3" d="M1552.94,610.43c-2.93,0.82-5.87,1.65-8.8,2.5c-14.73,4.22-29.43,8.58-44.09,13.07
		c-1.04,0.32-2.08,0.64-3.12,0.96c-1.84,0.56-3.67,1.13-5.5,1.7c-2.89,0.89-5.77,1.78-8.65,2.69c-0.37,0.11-0.74,0.23-1.1,0.35
		c-0.04,0-0.07,0.01-0.1,0.03c-0.25,0.07-0.5,0.15-0.74,0.23c-0.17,0.05-0.34,0.1-0.51,0.16c-0.08,0.02-0.16,0.04-0.23,0.08
		c-0.52,0.15-1.04,0.31-1.55,0.48c-2.94,0.92-5.88,1.85-8.81,2.79c-0.01,0-0.02,0-0.03,0.01c-19.26,6.13-38.45,12.47-57.56,19
		c-0.06,0.01-0.11,0.02-0.17,0.05c-3.07-3.08-5.97-6.09-8.67-9.04c-0.12-0.14-0.25-0.28-0.37-0.41c-0.25-0.28-0.5-0.55-0.75-0.82
		c-0.17-0.19-0.34-0.38-0.5-0.57c-0.61-0.68-1.19-1.34-1.77-2c-0.01,0-0.01-0.01-0.01-0.01c-1.08-1.24-2.13-2.47-3.12-3.68
		c-1.27-1.53-2.47-3.03-3.59-4.51c-0.38-0.49-0.75-0.98-1.1-1.46c-0.88-1.18-1.71-2.34-2.49-3.48c-0.46-0.67-0.89-1.32-1.32-1.97
		c-2.1-3.25-3.8-6.35-5.05-9.27c-0.68-1.56-1.23-3.06-1.64-4.52c0-0.01,0-0.01,0-0.01c-1.3-4.58-1.26-8.61,0.32-11.99
		c0.43-0.91,0.96-1.77,1.61-2.57c1.15-1.46,2.65-2.73,4.47-3.84c0.9-0.56,1.88-1.07,2.93-1.53c3.96-1.78,8.97-2.98,14.87-3.7
		c0.77-0.09,1.56-0.18,2.36-0.25c3.9-0.38,8.15-0.56,12.72-0.56c2.15,0,4.37,0.04,6.65,0.12c0.79,0.03,1.6,0.06,2.41,0.09
		c0.7,0.04,1.4,0.07,2.1,0.11c3.84,0.2,7.84,0.51,11.98,0.9c0.14,0.01,0.27,0.03,0.4,0.04c5.08,0.49,10.37,1.11,15.82,1.85
		c0.63,0.09,1.26,0.18,1.89,0.26c5.77,0.81,11.73,1.75,17.83,2.81c0.79,0.13,1.58,0.27,2.37,0.41c1.74,0.31,3.48,0.62,5.24,0.95
		h0.01c2.75,0.5,5.53,1.03,8.33,1.58c0.22,0.04,0.45,0.09,0.68,0.13c6.71,1.32,13.55,2.75,20.45,4.28
		c8.43,1.86,16.97,3.86,25.51,5.96C1546.01,608.68,1549.48,609.54,1552.94,610.43z"/>
	<path class="st3" d="M1482.68,616.72c-0.01,0.08-0.01,0.15-0.01,0.22v0.01c-0.01,0.18-0.02,0.37-0.03,0.55
		c-0.14,2.77-0.32,5.62-0.56,8.55c-0.12,1.51-0.25,3.04-0.4,4.59v0.04c0,0.03,0,0.06-0.01,0.09c0,0,0.01,0.01,0,0.02
		c-0.03,0.31-0.06,0.63-0.09,0.94c-0.25,0.07-0.5,0.15-0.74,0.23c-0.17,0.05-0.34,0.1-0.51,0.16c-0.08,0.02-0.16,0.04-0.23,0.08
		c-0.52,0.15-1.04,0.31-1.55,0.48c-2.94,0.92-5.88,1.85-8.81,2.79c-0.01,0-0.02,0-0.03,0.01c-19.26,6.13-38.45,12.47-57.56,19
		c-0.06,0.01-0.11,0.02-0.17,0.05c-2.4,0.81-4.81,1.64-7.21,2.47c-0.15,0.04-0.3,0.1-0.45,0.15c-0.1,0.03-0.2,0.07-0.3,0.11
		c-0.75,0.25-1.51,0.51-2.26,0.78c-1.02,0.34-2.04,0.69-3.06,1.04c-0.78,0.28-1.56,0.54-2.33,0.81c-1.81,0.63-3.61,1.26-5.41,1.89
		c-0.07,0.02-0.14,0.04-0.2,0.07c-0.53,0.18-1.06,0.36-1.59,0.55c-12.11,4.23-24.18,8.52-36.21,12.88
		c6.3-8.54,12.67-16.93,19.04-25.03c2.04-2.61,4.09-5.19,6.13-7.73c0.76-0.95,1.52-1.89,2.27-2.83c3.09-3.8,6.16-7.52,9.21-11.14
		c0.52-0.62,1.04-1.23,1.57-1.84c0.77-0.92,1.55-1.83,2.33-2.73c0.38-0.45,0.77-0.9,1.16-1.35c2.81-3.26,5.61-6.42,8.37-9.48
		c0.53-0.59,1.05-1.16,1.58-1.73c0.01,0,0.01,0,0.01-0.01c0.67-0.74,1.34-1.47,2.01-2.19c1.44-1.55,2.87-3.08,4.29-4.56
		c0.32-0.33,0.63-0.66,0.95-0.99c1.25-1.3,2.49-2.58,3.72-3.82c3.13-3.16,6.2-6.14,9.2-8.91c0.31-0.29,0.62-0.58,0.93-0.86
		c0.61-0.55,1.21-1.09,1.8-1.62c3.34-3,6.58-5.71,9.71-8.13h0.01l0.93-0.72c2.21-1.67,4.37-3.19,6.46-4.55
		c4.98-3.23,9.61-5.51,13.78-6.69c4.59-1.31,8.63-1.27,12.02,0.31s6.01,4.67,7.94,9.01l0.01,0.01c0.95,2.12,1.74,4.55,2.37,7.26
		c0.55,2.33,0.99,4.88,1.32,7.61c0.1,0.77,0.18,1.56,0.25,2.36c0.17,1.74,0.3,3.56,0.4,5.44
		C1482.97,605.38,1482.94,610.85,1482.68,616.72z"/>
	<path class="st3" d="M1634.25,399.02c-2.88,15.79-7.28,30.7-13.09,43.13c-3.39,7.25-8.91,17.44-16.01,29.57
		c-3.38,5.77-7.11,11.98-11.15,18.53h-0.01c-4.3,6.99-8.96,14.37-13.89,22.01c-11.09,17.17-23.56,35.63-36.62,53.94
		c-4.16,5.83-8.38,11.64-12.63,17.39c-2.02,2.74-4.05,5.45-6.08,8.15h-0.01c-2.56,3.41-5.14,6.79-7.72,10.13
		c-4.32,5.6-8.65,11.07-12.96,16.39v0.01c-2.39,2.95-4.78,5.85-7.15,8.69c-1.84,0.56-3.67,1.13-5.5,1.7
		c-2.89,0.89-5.77,1.78-8.65,2.69c-0.37,0.11-0.74,0.23-1.1,0.35c-0.04,0-0.07,0.01-0.1,0.03c-0.25,0.07-0.5,0.15-0.74,0.23
		c-0.17,0.05-0.34,0.1-0.51,0.16c-0.08,0.02-0.16,0.04-0.23,0.08c-0.52,0.15-1.04,0.31-1.55,0.48c-2.94,0.92-5.88,1.85-8.81,2.79
		c-0.01,0-0.02,0-0.03,0.01c-19.26,6.13-38.45,12.47-57.56,19c-0.06,0.01-0.11,0.02-0.17,0.05c-2.4,0.81-4.81,1.64-7.21,2.47
		c-0.15,0.04-0.3,0.1-0.45,0.15c-0.1,0.03-0.2,0.07-0.3,0.11c-0.75,0.25-1.51,0.51-2.26,0.78c-0.12-2.3-0.18-4.69-0.19-7.19v-0.01
		c0-0.47,0-0.94,0.01-1.42v-0.01c0-0.71,0-1.42,0.02-2.15c0.01-0.55,0.02-1.11,0.04-1.68c0.01-0.62,0.03-1.25,0.05-1.89
		c0.03-0.8,0.06-1.61,0.09-2.42c0.2-4.2,0.51-8.6,0.93-13.18c0.03-0.29,0.05-0.59,0.08-0.88v-0.01c0.05-0.48,0.09-0.96,0.14-1.44
		c0.46-4.62,1.03-9.41,1.69-14.34c0.01,0,0.01,0,0.01-0.01c0.07-0.52,0.14-1.04,0.21-1.57c0.04-0.25,0.07-0.5,0.1-0.75h0.01
		c0.24-1.77,0.5-3.56,0.78-5.37c0.01-0.11,0.03-0.23,0.05-0.35c0.6-3.96,1.26-8,1.96-12.1c0.14-0.79,0.28-1.57,0.42-2.37
		c0.46-2.61,0.94-5.25,1.44-7.91c0.39-2.1,0.8-4.21,1.22-6.34c0.76-3.87,1.55-7.77,2.39-11.71c1.1-5.23,2.26-10.51,3.47-15.81
		c1.02-4.48,2.07-8.97,3.16-13.48c0.61-2.51,1.22-5.03,1.85-7.55c9.08-36.6,19.95-73.21,29.75-102.56
		c7.56-22.63,14.49-40.95,19.5-51.65c3.64-7.78,8.38-15.76,13.94-23.66c32.66-46.47,93.52-90.39,124.22-76.03
		C1636.69,285.1,1643.78,346.83,1634.25,399.02z"/>
	<path class="st3" d="M1491.43,628.66c-2.89,0.89-5.77,1.78-8.65,2.69c-0.37,0.11-0.74,0.23-1.1,0.35c-0.04,0-0.07,0.01-0.1,0.03
		c-0.25,0.07-0.5,0.15-0.74,0.23c-0.17,0.05-0.34,0.1-0.51,0.16c-0.08,0.02-0.16,0.04-0.23,0.08c-0.52,0.15-1.04,0.31-1.55,0.48
		c-2.94,0.92-5.88,1.85-8.81,2.79c-0.01,0-0.02,0-0.03,0.01c-19.26,6.13-38.45,12.47-57.56,19c-0.06,0.01-0.11,0.02-0.17,0.05
		c-2.4,0.81-4.81,1.64-7.21,2.47c-0.15,0.04-0.3,0.1-0.45,0.15c-0.1,0.03-0.2,0.07-0.3,0.11c-0.02-0.31-0.04-0.61-0.06-0.92
		c-0.05-0.72-0.1-1.43-0.14-2.14c0-0.01,0-0.01,0-0.02c-0.2-2.94-0.37-5.84-0.51-8.69c-0.02-0.45-0.04-0.9-0.06-1.34
		c-0.02-0.34-0.04-0.67-0.05-1.01c-0.02-0.37-0.03-0.72-0.05-1.09v-0.01c-0.2-4.82-0.33-9.5-0.36-14v-0.84
		c-0.01-0.46-0.01-0.91-0.01-1.36c0-4.41,0.09-8.65,0.26-12.69c0.04-0.81,0.08-1.62,0.12-2.41c0.01-0.11,0.01-0.22,0.02-0.33
		c0.12-2.18,0.28-4.3,0.46-6.35c0.04-0.4,0.08-0.79,0.12-1.18v-0.01c0.39-4.08,0.91-7.89,1.57-11.39c0.15-0.79,0.3-1.57,0.47-2.33
		c0.7-3.31,1.54-6.31,2.53-8.98c0.74-2.04,1.57-3.88,2.49-5.52c2.33-4.15,5.21-6.97,8.71-8.24c3.04-1.1,6.47-1.01,10.23,0.16
		c3.75,1.14,7.82,3.34,12.15,6.45c0.9,0.64,1.81,1.32,2.73,2.04c0.61,0.48,1.23,0.98,1.85,1.49c4.45,3.67,9.14,8.18,13.99,13.38
		c0.35,0.37,0.7,0.74,1.04,1.12c0.21,0.22,0.41,0.44,0.61,0.66c3.17,3.47,6.42,7.22,9.72,11.23c0.34,0.42,0.69,0.85,1.04,1.28
		c2.75,3.38,5.55,6.93,8.37,10.63c0.43,0.57,0.87,1.15,1.31,1.73c0.04,0.05,0.07,0.1,0.11,0.14c0.01,0.02,0.02,0.03,0.03,0.05
		C1485.59,620.59,1488.5,624.56,1491.43,628.66z"/>
	<path class="st3" d="M1481.67,630.79c0.01,0.3,0.01,0.61,0.01,0.91c-0.04,0-0.07,0.01-0.1,0.03c-0.25,0.07-0.5,0.15-0.74,0.23
		c-0.17,0.05-0.34,0.1-0.51,0.16c-0.08,0.02-0.16,0.04-0.23,0.08c-0.52,0.15-1.04,0.31-1.55,0.48c-2.94,0.92-5.88,1.85-8.81,2.79
		c-0.01,0-0.02,0-0.03,0.01c-19.26,6.13-38.45,12.47-57.56,19c-2.86-3.49-5.76-7.16-8.69-10.99v-0.01
		c-0.08-0.11-0.17-0.23-0.26-0.34c-0.11-0.15-0.22-0.29-0.33-0.44c-0.36-0.47-0.72-0.95-1.09-1.43c-1.07-1.43-2.16-2.89-3.25-4.36
		c-1.1-1.5-2.22-3.02-3.33-4.57c-0.03-0.04-0.06-0.08-0.09-0.12v-0.01c-0.36-0.48-0.71-0.98-1.06-1.47
		c-0.96-1.33-1.91-2.67-2.87-4.03c-0.47-0.66-0.93-1.32-1.39-1.99c-1.8-2.56-3.6-5.17-5.4-7.81c-0.93-1.36-1.86-2.74-2.79-4.12
		c0-0.01,0-0.01,0-0.01c-3.79-5.64-7.58-11.43-11.34-17.34c-0.04-0.05-0.08-0.1-0.11-0.16c-3-4.69-5.98-9.46-8.95-14.27
		c-2.37-3.84-4.73-7.71-7.06-11.61c-3.27-5.44-6.5-10.91-9.68-16.38c-3.16-5.44-6.27-10.88-9.31-16.28
		c-25.87-45.93-46.98-89.38-54.41-109.84c-2.08-5.73-3.83-11.93-5.27-18.45c-12.51-56.65-0.97-137.62,32.47-149.74
		c26.8-9.72,71.14,23.51,101.46,63.59c11.86,15.69,21.57,32.43,27.24,48.05c4.02,11.1,9.29,29.97,14.8,53.19
		c6.01,25.35,12.31,55.89,17.59,87.15c1.03,6.07,2.02,12.17,2.95,18.26c0.49,3.15,0.97,6.29,1.43,9.43
		c0.23,1.57,0.45,3.15,0.67,4.72c0.66,4.62,1.29,9.23,1.87,13.81c0.9,7.02,1.72,13.96,2.43,20.78l0.01,0.01
		c0.27,2.61,0.53,5.2,0.77,7.76c0.21,2.23,0.41,4.45,0.59,6.64h0.01c0.07,0.81,0.13,1.62,0.2,2.42c0.17,2.15,0.34,4.27,0.49,6.38
		c0.23,3.31,0.44,6.56,0.6,9.76v0.01c0.08,1.41,0.15,2.8,0.21,4.18c0.1,2.26,0.19,4.5,0.25,6.69c0.07,2.32,0.12,4.6,0.15,6.84
		c0,0.01,0,0.01,0,0.02c0,0.75,0.01,1.49,0.01,2.23c0.01,0.01,0.01,0.03,0.01,0.05c0,0.03,0,0.06-0.01,0.09
		C1481.67,630.77,1481.68,630.78,1481.67,630.79z"/>
	<path class="st3" d="M1504.08,618.26L1504.08,618.26c-0.93,2.47-2.28,5.04-4.03,7.74c-1.04,0.32-2.08,0.64-3.12,0.96
		c-1.84,0.56-3.67,1.13-5.5,1.7c-2.89,0.89-5.77,1.78-8.65,2.69c-0.37,0.11-0.74,0.23-1.1,0.35c-0.04,0-0.07,0.01-0.1,0.03
		c-0.25,0.07-0.5,0.15-0.74,0.23c-0.17,0.05-0.34,0.1-0.51,0.16c-0.08,0.02-0.16,0.04-0.23,0.08c-0.52,0.15-1.04,0.31-1.55,0.48
		c-2.94,0.92-5.88,1.85-8.81,2.79c-0.01,0-0.02,0-0.03,0.01c-19.26,6.13-38.45,12.47-57.56,19c-0.06,0.01-0.11,0.02-0.17,0.05
		c-2.4,0.81-4.81,1.64-7.21,2.47c-0.15,0.04-0.3,0.1-0.45,0.15c-0.1,0.03-0.2,0.07-0.3,0.11c-0.75,0.25-1.51,0.51-2.26,0.78
		c-1.02,0.34-2.04,0.69-3.06,1.04c-0.78,0.28-1.56,0.54-2.33,0.81c-1.81,0.63-3.61,1.26-5.41,1.89c-0.07,0.02-0.14,0.04-0.2,0.07
		c-0.53,0.18-1.06,0.36-1.59,0.55c-12.11,4.23-24.18,8.52-36.21,12.88c-6.75,2.44-13.48,4.9-20.2,7.38
		c-0.74,0.27-1.48,0.54-2.22,0.82c-9.27,3.42-18.51,6.87-27.73,10.36c-22.57,8.53-45.01,17.25-67.28,26.1
		c-50.18,19.94-99.55,40.57-147.91,61.36c-7.65-5.05-13.16-11.06-15.68-18.02c-2.42-6.66-2.18-14.41,0.16-22.76
		c5.38-19.19,21.86-41.54,42.69-61.15c0.97-0.92,1.94-1.82,2.93-2.72c16.29-14.86,34.96-27.94,52.96-36.58
		c4.36-2.1,8.68-3.93,12.92-5.47c17.94-6.5,56.17-16.26,100.24-25.02c7.34-1.46,14.84-2.89,22.44-4.28
		c9.29-1.69,18.71-3.32,28.16-4.83c11.81-1.9,23.64-3.64,35.27-5.14h0.01c0.15-0.01,0.29-0.03,0.43-0.05
		c5.93-0.76,11.8-1.46,17.58-2.09c1.07-0.12,2.14-0.23,3.2-0.34c4.87-0.51,9.68-0.97,14.4-1.37c0.81-0.07,1.61-0.14,2.41-0.21
		c5.44-0.44,10.76-0.8,15.93-1.08c0.69-0.04,1.38-0.08,2.06-0.11c0.78-0.04,1.56-0.08,2.34-0.11c1.09-0.05,2.17-0.09,3.25-0.13
		c4.36-0.17,8.6-0.26,12.7-0.28c0.12-0.01,0.25-0.01,0.37,0c5.66-0.03,11.04,0.1,16.09,0.37c1.28,0.07,2.54,0.15,3.77,0.24
		c5.65,0.42,10.84,1.05,15.5,1.93h0.01c0.8,0.15,1.56,0.3,2.32,0.47c2.09,0.44,4.05,0.94,5.89,1.49h0.01
		c3.14,0.95,5.9,2.05,8.25,3.33c0.12,0.07,0.25,0.13,0.36,0.2c4.15,2.33,6.98,5.21,8.25,8.71S1505.79,613.82,1504.08,618.26z"/>
	<path class="st3" d="M1480.1,632.2c-0.52,0.15-1.04,0.31-1.55,0.48c-2.94,0.92-5.88,1.85-8.81,2.79c-0.01,0-0.02,0-0.03,0.01
		c-19.26,6.13-38.45,12.47-57.56,19c-0.06,0.01-0.11,0.02-0.17,0.05c-2.4,0.81-4.81,1.64-7.21,2.47c-0.15,0.04-0.3,0.1-0.45,0.15
		c-0.1,0.03-0.2,0.07-0.3,0.11c-0.75,0.25-1.51,0.51-2.26,0.78c-1.02,0.34-2.04,0.69-3.06,1.04c-0.78,0.28-1.56,0.54-2.33,0.81
		c-1.81,0.63-3.61,1.26-5.41,1.89c-0.07,0.02-0.14,0.04-0.2,0.07c-0.53,0.18-1.06,0.36-1.59,0.55
		c-12.11,4.23-24.18,8.52-36.21,12.88c-6.75,2.44-13.48,4.9-20.2,7.38c-0.74,0.27-1.48,0.54-2.22,0.82
		c-3.6-0.65-7.19-1.32-10.76-1.99c-24.58-4.64-48.36-9.82-69.11-14.85c-26.15-6.34-47.49-12.45-59.57-16.98
		c-1.43-0.54-2.86-1.11-4.31-1.72h-0.01c-5.29-2.2-10.69-4.85-16.1-7.87c-6.25-3.48-12.52-7.45-18.69-11.79
		c-8.67-6.11-17.14-12.96-25.06-20.24c-31.78-29.23-54.66-65.39-46.08-88.28c10.17-27.12,65.78-39.22,116.59-35.72
		c18.81,1.3,36.95,4.73,51.9,10.34c16.85,6.32,49.29,22.16,85.81,42.36c6.96,3.84,14.07,7.85,21.24,11.98h0.01
		c4.06,2.34,8.14,4.71,12.23,7.12c4.39,2.58,8.79,5.21,13.19,7.86c3.49,2.11,6.98,4.24,10.46,6.39c5.4,3.33,10.76,6.7,16.05,10.08
		c0.42,0.28,0.84,0.55,1.27,0.82c3.8,2.44,7.56,4.89,11.28,7.35c0.93,0.61,1.86,1.23,2.79,1.85c0.38,0.25,0.76,0.5,1.13,0.75
		c0.36,0.24,0.72,0.48,1.07,0.72c1.03,0.69,2.06,1.38,3.08,2.07c0.11,0.08,0.22,0.15,0.33,0.22c2.53,1.72,5.04,3.44,7.51,5.15
		c3.88,2.69,7.67,5.37,11.37,8.05c0.68,0.49,1.36,0.98,2.03,1.47h0.01c3.2,2.33,6.31,4.65,9.34,6.96c1.07,0.81,2.14,1.62,3.19,2.43
		v0.01c3.1,2.4,6.11,4.77,8.99,7.12c2.5,2.05,4.92,4.07,7.24,6.07c0.14,0.12,0.27,0.23,0.41,0.35c0,0.01,0.01,0.01,0.01,0.01
		C1479.62,631.78,1479.86,631.99,1480.1,632.2z"/>
	<path class="st3" d="M1814.15,507.54c-1,14.9-10.56,32.74-24.77,50.09c-37.55,5.92-75.09,13.12-112.54,21.43
		c-36.2,8.02-72.31,17.08-108.26,27c-5.22,1.43-10.43,2.88-15.64,4.37c-2.93,0.82-5.87,1.65-8.8,2.5
		c-14.73,4.22-29.43,8.58-44.09,13.07c-1.04,0.32-2.08,0.64-3.12,0.96c-1.84,0.56-3.67,1.13-5.5,1.7c-2.89,0.89-5.77,1.78-8.65,2.69
		c-0.37,0.11-0.74,0.23-1.1,0.35c-0.04,0-0.07,0.01-0.1,0.03c-0.25,0.07-0.5,0.15-0.74,0.23c-0.17,0.05-0.34,0.1-0.51,0.16
		c-0.08,0.02-0.16,0.04-0.23,0.08c-0.52,0.15-1.04,0.31-1.55,0.48c-2.94,0.92-5.88,1.85-8.81,2.79c-0.01,0-0.02,0-0.03,0.01
		c-19.26,6.13-38.45,12.47-57.56,19c-0.06,0.01-0.11,0.02-0.17,0.05c-2.4,0.81-4.81,1.64-7.21,2.47c-0.15,0.04-0.3,0.1-0.45,0.15
		c-0.1,0.03-0.2,0.07-0.3,0.11c-0.75,0.25-1.51,0.51-2.26,0.78c-1.02,0.34-2.04,0.69-3.06,1.04c-0.78,0.28-1.56,0.54-2.33,0.81
		c-1.81,0.63-3.61,1.26-5.41,1.89c-0.07,0.02-0.14,0.04-0.2,0.07c-2.28-1.02-4.27-2.15-5.92-3.43c-0.44-0.33-0.86-0.68-1.25-1.03
		c-0.01,0-0.02-0.01-0.03-0.02c-1.84-1.68-3.16-3.56-3.92-5.66c-1.1-3.03-1.01-6.46,0.14-10.2c0.17-0.6,0.38-1.2,0.62-1.82
		c1.55-4.04,4.23-8.44,7.89-13.11c0.48-0.61,0.98-1.23,1.5-1.86c1.07-1.31,2.22-2.63,3.45-3.98c0.23-0.27,0.48-0.54,0.74-0.81
		c2.74-2.98,5.81-6.05,9.18-9.19c0.18-0.18,0.36-0.35,0.55-0.51c0.4-0.38,0.81-0.76,1.23-1.14h0.01c1.67-1.54,3.4-3.08,5.2-4.63
		c0.32-0.28,0.65-0.56,0.98-0.85c1.45-1.24,2.94-2.5,4.47-3.76c3.26-2.69,6.69-5.43,10.27-8.19c0.73-0.56,1.46-1.12,2.2-1.69
		c0.62-0.47,1.24-0.94,1.87-1.42c1.32-0.99,2.66-1.99,4.02-3l0.01-0.01c1.79-1.31,3.6-2.64,5.45-3.97c2.31-1.67,4.67-3.34,7.07-5.02
		c3.88-2.72,7.86-5.45,11.93-8.18c5.7-3.82,11.55-7.65,17.53-11.46c5.3-3.39,10.68-6.76,16.12-10.09c1.86-1.15,3.73-2.29,5.61-3.43
		c8.61-5.21,17.32-10.35,26-15.34c24.74-14.22,49.22-27.28,70.31-37.8h0.01c21.36-10.66,39.23-18.72,50.34-22.75
		c12.23-4.44,26.56-7.41,41.63-8.95c33.3-3.4,70.19,0.19,95.79,10.43c15.46,6.18,26.8,14.78,30.77,25.73
		C1813.96,498.64,1814.46,502.95,1814.15,507.54z"/>
	<path class="st2" d="M1676.84,579.06c-36.2,8.02-72.31,17.08-108.26,27c-5.22,1.43-10.43,2.88-15.64,4.37
		c-2.93,0.82-5.87,1.65-8.8,2.5c-14.73,4.22-29.43,8.58-44.09,13.07c-1.04,0.32-2.08,0.64-3.12,0.96c-1.84,0.56-3.67,1.13-5.5,1.7
		c-2.89,0.89-5.77,1.78-8.65,2.69c-0.37,0.11-0.74,0.23-1.1,0.35c-0.04,0-0.07,0.01-0.1,0.03c-0.25,0.07-0.5,0.15-0.74,0.23
		c-0.17,0.05-0.34,0.1-0.51,0.16c-0.08,0.02-0.16,0.04-0.23,0.08c-0.52,0.15-1.04,0.31-1.55,0.48c-2.94,0.92-5.88,1.85-8.81,2.79
		c-0.01,0-0.02,0-0.03,0.01c-19.26,6.13-38.45,12.47-57.56,19c-0.06,0.01-0.11,0.02-0.17,0.05c-2.4,0.81-4.81,1.64-7.21,2.47
		c-0.15,0.04-0.3,0.1-0.45,0.15c-0.1,0.03-0.2,0.07-0.3,0.11c-0.75,0.25-1.51,0.51-2.26,0.78c-1.02,0.34-2.04,0.69-3.06,1.04
		c-0.78,0.28-1.56,0.54-2.33,0.81c-1.81,0.63-3.61,1.26-5.41,1.89c-0.07,0.02-0.14,0.04-0.2,0.07c-0.53,0.18-1.06,0.36-1.59,0.55
		c-1.66-1.32-3.11-2.64-4.33-3.98c-0.19-0.2-0.37-0.4-0.54-0.6l-0.01-0.01c-2.68-3.12-4.13-6.29-4.13-9.52s1.45-6.42,4.15-9.54
		c1.96-2.28,4.59-4.51,7.79-6.72c0.63-0.43,1.28-0.86,1.95-1.29c0.2-0.13,0.4-0.25,0.61-0.38c0.57-0.36,1.15-0.72,1.76-1.07
		c1.96-1.16,4.09-2.31,6.36-3.45c0.05-0.03,0.1-0.05,0.15-0.08c2.66-1.33,5.52-2.64,8.56-3.94c0.63-0.27,1.27-0.54,1.92-0.81h0.01
		c3.59-1.49,7.41-2.95,11.43-4.38c0.01,0,0.02-0.01,0.03-0.01c4.15-1.49,8.52-2.94,13.07-4.36c0.64-0.2,1.29-0.4,1.94-0.6
		c3.35-1.03,6.78-2.04,10.3-3.04h0.01c1.56-0.44,3.13-0.88,4.71-1.31c0.67-0.18,1.35-0.37,2.03-0.55c3.97-1.07,8.03-2.12,12.16-3.14
		c0.91-0.23,1.83-0.45,2.75-0.68c2.84-0.69,5.71-1.37,8.6-2.04c0.76-0.18,1.52-0.36,2.28-0.53c1.35-0.31,2.7-0.62,4.06-0.92
		c3.02-0.68,6.06-1.34,9.12-1.99c0.11-0.02,0.22-0.04,0.32-0.07c9.42-2,18.99-3.89,28.53-5.65h0.01c3.31-0.6,6.6-1.19,9.89-1.77
		c24.26-4.25,47.95-7.63,68.15-9.97h0.01c20.57-2.38,37.51-3.66,47.76-3.66C1658.79,576.34,1667.69,577.3,1676.84,579.06z"/>
	<path class="st2" d="M1482.78,631.35c-0.37,0.11-0.74,0.23-1.1,0.35c-0.04,0-0.07,0.01-0.1,0.03c-0.25,0.07-0.5,0.15-0.74,0.23
		c-0.17,0.05-0.34,0.1-0.51,0.16c-0.08,0.02-0.16,0.04-0.23,0.08c-0.52,0.15-1.04,0.31-1.55,0.48c-2.94,0.92-5.88,1.85-8.81,2.79
		c-0.01,0-0.02,0-0.03,0.01c-19.26,6.13-38.45,12.47-57.56,19c-0.06,0.01-0.11,0.02-0.17,0.05c-2.4,0.81-4.81,1.64-7.21,2.47
		c-0.15,0.04-0.3,0.1-0.45,0.15c-0.1,0.03-0.2,0.07-0.3,0.11c-0.75,0.25-1.51,0.51-2.26,0.78c-1.02,0.34-2.04,0.69-3.06,1.04
		c-0.78,0.28-1.56,0.54-2.33,0.81c-1.81,0.63-3.61,1.26-5.41,1.89c-0.07,0.02-0.14,0.04-0.2,0.07c-0.53,0.18-1.06,0.36-1.59,0.55
		c-12.11,4.23-24.18,8.52-36.21,12.88c-6.75,2.44-13.48,4.9-20.2,7.38c-0.74,0.27-1.48,0.54-2.22,0.82
		c-9.27,3.42-18.51,6.87-27.73,10.36c-22.57,8.53-45.01,17.25-67.28,26.1c-3.9,0.2-7.33,0.3-10.22,0.3
		c-20.73,0-45.81-6.13-68.33-15.72c-16.26-6.92-31.19-15.64-42.19-25.15c-0.38-0.32-0.76-0.65-1.13-0.99
		c-9.57-8.52-15.93-17.65-17.25-26.66c-0.16-1.14-0.25-2.29-0.25-3.43c0-13.79,12.5-28.07,30.77-40.25
		c27.35-18.22,67.64-31.7,98.38-31.7c10.15,0,26.87,1.26,47.16,3.59h0.01c0.2,0.02,0.4,0.05,0.61,0.07
		c19.28,2.23,41.74,5.42,64.83,9.39h0.01c0.58,0.11,1.17,0.21,1.75,0.31c9.97,1.73,20.05,3.61,30.03,5.63h0.01
		c0.18,0.04,0.36,0.07,0.54,0.11c4.45,0.9,8.88,1.83,13.27,2.78c1.87,0.41,3.73,0.82,5.58,1.23c4.95,1.11,9.84,2.25,14.65,3.42v0.01
		c0.68,0.16,1.35,0.32,2.02,0.49c0.34,0.08,0.67,0.17,1.01,0.25h0.01c1.12,0.28,2.24,0.56,3.35,0.84c0.26,0.07,0.52,0.13,0.78,0.2
		c1.74,0.44,3.47,0.89,5.18,1.34c0.95,0.26,1.91,0.51,2.85,0.76c0.67,0.19,1.34,0.37,2.01,0.55c5.18,1.41,10.2,2.86,15.03,4.35
		c0.65,0.2,1.3,0.4,1.95,0.6c4.56,1.43,8.94,2.88,13.1,4.37c4.01,1.44,7.83,2.9,11.42,4.38c0.65,0.27,1.3,0.54,1.94,0.81
		c2.57,1.1,5.01,2.21,7.31,3.32c2.8,1.37,5.4,2.76,7.76,4.16c0.6,0.35,1.19,0.7,1.75,1.06c0.15,0.09,0.3,0.18,0.44,0.27
		c0.01,0.01,0.01,0.01,0.01,0.01C1482.06,630.88,1482.42,631.11,1482.78,631.35z"/>
	<path class="st2" d="M1469.71,635.48c-19.26,6.13-38.45,12.47-57.56,19c-0.06,0.01-0.11,0.02-0.17,0.05
		c-2.4,0.81-4.81,1.64-7.21,2.47c-0.15,0.04-0.3,0.1-0.45,0.15c-0.1,0.03-0.2,0.07-0.3,0.11c-0.75,0.25-1.51,0.51-2.26,0.78
		c-1.02,0.34-2.04,0.69-3.06,1.04c0.86-3.01,1.73-5.96,2.62-8.84c0.08-0.28,0.17-0.54,0.26-0.82v-0.01
		c0.11-0.37,0.22-0.74,0.34-1.11v-0.01c0.34-1.08,0.68-2.15,1.02-3.21c0.1-0.31,0.2-0.62,0.31-0.93c0.06-0.22,0.14-0.44,0.21-0.66
		v-0.01c0.93-2.85,1.88-5.63,2.83-8.3c0.01-0.03,0.02-0.05,0.03-0.07c1.43-3.99,2.88-7.79,4.36-11.35c0.27-0.65,0.54-1.3,0.81-1.94
		c2.43-5.69,4.92-10.75,7.47-15.06c0.35-0.6,0.71-1.19,1.07-1.75c0.08-0.14,0.17-0.28,0.26-0.42c2.64-4.16,5.33-7.5,8.08-9.89
		l0.01-0.01c0.3-0.26,0.59-0.5,0.9-0.74c2.84-2.23,5.74-3.43,8.67-3.43c3.24,0,6.43,1.46,9.55,4.16c0.25,0.21,0.49,0.43,0.73,0.66
		c2.6,2.4,5.15,5.67,7.64,9.67c0.36,0.56,0.72,1.15,1.07,1.75c1.96,3.32,3.89,7.09,5.79,11.25v0.01c0.56,1.23,1.12,2.5,1.68,3.8
		c0.27,0.64,0.54,1.29,0.81,1.94c1.49,3.58,2.95,7.4,4.38,11.42c0.01,0.01,0.01,0.02,0.01,0.03
		C1469.64,635.3,1469.68,635.38,1469.71,635.48z"/>
	<path class="st2" d="M1509.91,435.65c0,10.25-1.28,27.19-3.66,47.75c-0.61,5.25-1.29,10.75-2.04,16.43
		c-1.48,11.27-3.23,23.26-5.22,35.58c-0.43,2.64-0.86,5.31-1.31,7.98c-0.35,2.06-0.7,4.11-1.06,6.17
		c-1.86,10.75-3.9,21.62-6.09,32.36c-0.83,4.07-1.68,8.12-2.55,12.14h-0.01c-0.13,0.61-0.26,1.21-0.39,1.82h-0.01
		c-0.25,1.19-0.52,2.38-0.78,3.57c-1.32,5.87-2.68,11.66-4.08,17.32c-0.01,0.06-0.03,0.11-0.04,0.17v0.01
		c-0.02,0.07-0.04,0.13-0.05,0.2v0.01c-0.37,1.47-0.74,2.93-1.11,4.38c-0.67,2.62-1.35,5.21-2.03,7.76
		c-0.18,0.64-0.35,1.28-0.52,1.91c-0.01,0.04-0.02,0.07-0.03,0.11c-0.13,0.45-0.25,0.91-0.38,1.36c-2.94,0.92-5.88,1.85-8.81,2.79
		c-0.01,0-0.02,0-0.03,0.01c-19.26,6.13-38.45,12.47-57.56,19c-0.06,0.01-0.11,0.02-0.17,0.05c-2.4,0.81-4.81,1.64-7.21,2.47
		c-0.32-0.92-0.64-1.86-0.95-2.8c0-0.01,0-0.01,0-0.02c-0.64-1.92-1.27-3.88-1.9-5.88v-0.01c-0.1-0.34-0.21-0.68-0.32-1.03
		c-0.09-0.31-0.19-0.61-0.28-0.92c-0.47-1.53-0.94-3.08-1.4-4.65c-0.01,0-0.01-0.01-0.01-0.01c-0.46-1.57-0.92-3.16-1.38-4.77
		c-0.52-1.84-1.04-3.71-1.56-5.59c-0.18-0.67-0.37-1.35-0.55-2.03c-0.59-2.19-1.17-4.41-1.75-6.66c-0.23-0.89-0.46-1.8-0.69-2.7
		c-0.23-0.93-0.47-1.86-0.7-2.79v-0.01c-0.25-1.02-0.5-2.04-0.75-3.06c-1.17-4.8-2.31-9.68-3.42-14.62
		c-0.37-1.68-0.75-3.37-1.11-5.07c-0.09-0.4-0.18-0.79-0.27-1.19c-1.43-6.63-2.81-13.35-4.12-20.09c-0.61-3.13-1.21-6.27-1.79-9.4
		c-0.94-5.05-1.84-10.09-2.71-15.11c-0.43-2.5-0.85-4.99-1.27-7.48c-3.42-20.56-6.19-40.4-8.19-57.68
		c-2.38-20.57-3.66-37.53-3.66-47.78c0-37.02,19.57-87.92,43.41-113.35c9.17-9.79,18.98-15.81,28.55-15.81
		c16.4,0,33.51,17.68,46.93,41.74C1499.62,374.67,1509.91,408.81,1509.91,435.65z"/>
	<path class="st2" d="M1479.38,631.57c0.32,0.19,0.63,0.37,0.95,0.55c-0.08,0.02-0.16,0.04-0.23,0.08
		c-0.52,0.15-1.04,0.31-1.55,0.48c-2.94,0.92-5.88,1.85-8.81,2.79c-0.01,0-0.02,0-0.03,0.01c-19.26,6.13-38.45,12.47-57.56,19
		c-0.06,0.01-0.11,0.02-0.17,0.05c-2.4,0.81-4.81,1.64-7.21,2.47c-0.15,0.04-0.3,0.1-0.45,0.15c-0.12-0.27-0.24-0.54-0.36-0.81
		c-0.84-1.87-1.64-3.69-2.39-5.49v-0.01c-0.09-0.2-0.17-0.4-0.25-0.6c-0.27-0.65-0.54-1.3-0.8-1.95c0-0.01,0-0.01,0-0.01
		c-1.44-3.59-2.7-7.02-3.73-10.28c-0.63-1.94-1.17-3.82-1.64-5.63v-0.01c-0.02-0.04-0.03-0.09-0.04-0.14v-0.01
		c-0.16-0.63-0.31-1.24-0.45-1.85c-0.52-2.25-0.91-4.38-1.15-6.38c-0.14-1.12-0.23-2.2-0.27-3.24c-0.06-1.27-0.05-2.46,0.04-3.6
		v-0.01c0.08-1.24,0.26-2.41,0.53-3.5c0.6-2.52,1.68-4.6,3.28-6.2c1.67-1.67,3.88-2.78,6.55-3.37c0.67-0.15,1.36-0.26,2.09-0.34
		c0.34-0.05,0.7-0.08,1.06-0.1h0.01c1.35-0.1,2.79-0.1,4.33-0.01c0.25,0.02,0.5,0.04,0.75,0.06c2.34,0.19,4.87,0.6,7.57,1.2
		c0.19,0.04,0.38,0.08,0.58,0.14c0.65,0.14,1.31,0.3,1.99,0.47c4.85,1.25,10.19,3.08,15.93,5.39c0.64,0.25,1.29,0.51,1.94,0.79
		c3.58,1.48,7.31,3.14,11.16,4.97c4,1.89,8.12,3.96,12.36,6.18h0.01c0.6,0.31,1.19,0.63,1.8,0.95c4.47,2.37,9.05,4.89,13.71,7.56
		c0.15,0.08,0.29,0.17,0.44,0.24C1479.37,631.57,1479.38,631.57,1479.38,631.57z"/>
	<path class="st2" d="M1469.74,635.47c-0.01,0-0.02,0-0.03,0.01c-19.26,6.13-38.45,12.47-57.56,19c-0.06,0.01-0.11,0.02-0.17,0.05
		c-2.4,0.81-4.81,1.64-7.21,2.47c-0.15,0.04-0.3,0.1-0.45,0.15c-0.1,0.03-0.2,0.07-0.3,0.11c-0.75,0.25-1.51,0.51-2.26,0.78
		c-1.02,0.34-2.04,0.69-3.06,1.04c-0.78,0.28-1.56,0.54-2.33,0.81c-1.81,0.63-3.61,1.26-5.41,1.89c-2.21-1.29-4.43-2.61-6.66-3.96
		l-0.01-0.01c-0.23-0.14-0.47-0.28-0.7-0.42c-0.01,0-0.02-0.01-0.03-0.02c-3.83-2.31-7.68-4.68-11.56-7.12
		c-1.03-0.65-2.07-1.3-3.1-1.96h-0.01c-8.48-5.38-17.03-11.01-25.5-16.76c-5.15-3.49-10.27-7.03-15.33-10.58
		c-7.44-5.22-14.73-10.47-21.78-15.65c-1.27-0.94-2.53-1.87-3.78-2.79c-10.56-7.82-20.49-15.43-29.41-22.51
		c-0.09-0.07-0.18-0.14-0.26-0.2c-16.11-12.78-28.91-23.78-36.12-30.99c-15.8-15.81-30.14-40.23-39.27-64.77
		c-11.82-31.76-14.91-63.71-1.17-77.43c13.98-13.99,46.87-10.52,79.2,1.84c23.94,9.15,47.57,23.18,62.99,38.6
		c7.25,7.25,18.33,20.15,31.19,36.38c11.13,14.03,23.59,30.55,36.07,48.06c1.05,1.47,2.1,2.96,3.15,4.44
		c2.61,3.7,5.22,7.44,7.81,11.2c2.72,3.95,5.43,7.93,8.11,11.93c1.67,2.5,3.33,5,4.97,7.51c2.78,4.22,5.52,8.45,8.18,12.66
		c0.09,0.12,0.17,0.25,0.24,0.38c0.42,0.65,0.83,1.31,1.24,1.96c1.69,2.67,3.35,5.34,4.97,7.99c0.01,0.01,0.02,0.03,0.03,0.04
		c1.04,1.7,2.07,3.39,3.08,5.08c0.16,0.25,0.31,0.5,0.45,0.75c2.04,3.39,4.01,6.74,5.92,10.06c0.35,0.61,0.7,1.21,1.04,1.82
		c1.6,2.79,3.15,5.55,4.63,8.27c1,1.83,1.98,3.64,2.93,5.43c0.32,0.6,0.63,1.2,0.94,1.8h0.01c2.22,4.24,4.29,8.37,6.18,12.37
		c0.01,0.01,0.01,0.02,0.01,0.03C1469.66,635.3,1469.7,635.39,1469.74,635.47z"/>
	<path class="st2" d="M1482.08,626.05c-0.12,0.76-0.26,1.53-0.42,2.33c0,0.01,0,0.01,0,0.02c-0.13,0.64-0.27,1.3-0.43,1.96
		c-0.12,0.52-0.25,1.06-0.39,1.6c-0.17,0.05-0.34,0.1-0.51,0.16c-0.08,0.02-0.16,0.04-0.23,0.08c-0.52,0.15-1.04,0.31-1.55,0.48
		c-2.94,0.92-5.88,1.85-8.81,2.79c-0.01,0-0.02,0-0.03,0.01c-19.26,6.13-38.45,12.47-57.56,19c-0.06,0.01-0.11,0.02-0.17,0.05
		c-2.4,0.81-4.81,1.64-7.21,2.47c-0.15,0.04-0.3,0.1-0.45,0.15c-0.1,0.03-0.2,0.07-0.3,0.11c-0.75,0.25-1.51,0.51-2.26,0.78
		c-1.02,0.34-2.04,0.69-3.06,1.04c-0.78,0.28-1.56,0.54-2.33,0.81c-1.81,0.63-3.61,1.26-5.41,1.89c-0.07,0.02-0.14,0.04-0.2,0.07
		c-0.53,0.18-1.06,0.36-1.59,0.55c-12.11,4.23-24.18,8.52-36.21,12.88c-6.75,2.44-13.48,4.9-20.2,7.38
		c-0.74,0.27-1.48,0.54-2.22,0.82c-9.27,3.42-18.51,6.87-27.73,10.36c5.5-4.08,11.18-8.21,16.97-12.35
		c3.37-2.4,6.77-4.81,10.21-7.22c12.77-8.93,25.92-17.75,38.9-25.98h0.01c3.09-1.96,6.17-3.89,9.23-5.77
		c0.55-0.35,1.1-0.68,1.65-1.01c1.52-0.94,3.03-1.86,4.53-2.76c2.99-1.8,5.95-3.56,8.89-5.26c0.65-0.38,1.3-0.76,1.95-1.12v-0.01
		c0.02-0.01,0.03-0.02,0.05-0.02c0.59-0.35,1.18-0.69,1.77-1.02c1.93-1.1,3.84-2.18,5.74-3.23c0.03-0.02,0.05-0.03,0.08-0.05
		c2.67-1.48,5.3-2.91,7.89-4.28c0.6-0.32,1.19-0.63,1.78-0.94h0.01c4.24-2.22,8.38-4.29,12.38-6.19c0.01,0,0.02-0.01,0.03-0.01
		c3.83-1.82,7.55-3.48,11.12-4.96c0.66-0.27,1.3-0.54,1.95-0.79c3.56-1.44,6.97-2.68,10.21-3.72c1.97-0.63,3.88-1.19,5.71-1.66
		c0.68-0.18,1.35-0.34,2-0.48c5.02-1.17,9.48-1.67,13.23-1.39c1.36,0.09,2.62,0.29,3.79,0.6c2.38,0.61,4.37,1.67,5.91,3.21
		c0.92,0.92,1.67,2,2.25,3.23v0.01c0.81,1.69,1.31,3.67,1.52,5.91c0.02,0.19,0.04,0.37,0.05,0.57v0.01
		c0.01,0.11,0.01,0.22,0.02,0.34C1482.79,620.05,1482.59,622.92,1482.08,626.05z"/>
	<path class="st2" d="M1687.12,452.55c-0.33,1.98-0.71,3.98-1.15,6c-2.08,9.79-5.29,20.08-9.35,30.26h-0.01
		c-7.29,18.25-17.35,36.14-28.61,50.13h-0.01c-2.86,3.56-5.8,6.87-8.8,9.87c-7.25,7.25-20.14,18.32-36.37,31.19h-0.01
		c-10.27,8.14-21.88,17-34.23,26.06c-5.22,1.43-10.43,2.88-15.64,4.37c-2.93,0.82-5.87,1.65-8.8,2.5
		c-14.73,4.22-29.43,8.58-44.09,13.07c-1.04,0.32-2.08,0.64-3.12,0.96c-1.84,0.56-3.67,1.13-5.5,1.7c-2.89,0.89-5.77,1.78-8.65,2.69
		c-0.37,0.11-0.74,0.23-1.1,0.35c-0.04,0-0.07,0.01-0.1,0.03c-0.25,0.07-0.5,0.15-0.74,0.23c-0.17,0.05-0.34,0.1-0.51,0.16
		c-0.08,0.02-0.16,0.04-0.23,0.08c-0.52,0.15-1.04,0.31-1.55,0.48c-2.94,0.92-5.88,1.85-8.81,2.79c-0.01,0-0.02,0-0.03,0.01
		c-19.26,6.13-38.45,12.47-57.56,19c-0.06,0.01-0.11,0.02-0.17,0.05c-2.4,0.81-4.81,1.64-7.21,2.47c-0.15,0.04-0.3,0.1-0.45,0.15
		c-0.1,0.03-0.2,0.07-0.3,0.11c-0.75,0.25-1.51,0.51-2.26,0.78c-1.02,0.34-2.04,0.69-3.06,1.04c-0.78,0.28-1.56,0.54-2.33,0.81
		c1.11-3.65,2.51-7.52,4.15-11.6c0-0.01,0-0.01,0-0.01c0.26-0.64,0.52-1.29,0.8-1.94c0.1-0.25,0.2-0.5,0.32-0.76
		c0.17-0.44,0.36-0.88,0.55-1.32c0.22-0.52,0.44-1.04,0.68-1.56c0.09-0.22,0.18-0.43,0.28-0.65v-0.01c0.98-2.24,2.03-4.53,3.14-6.86
		c0.01-0.03,0.02-0.05,0.03-0.07c1.88-3.98,3.94-8.08,6.14-12.29h0.01c0.31-0.6,0.62-1.2,0.94-1.81h0.01
		c2.36-4.46,4.89-9.04,7.55-13.7c0.34-0.61,0.69-1.22,1.05-1.83c0.34-0.6,0.7-1.21,1.05-1.82c1.72-2.96,3.49-5.95,5.3-8.96
		l0.01-0.01l0.57-0.96c0.78-1.29,1.57-2.59,2.37-3.89c0.24-0.39,0.48-0.78,0.72-1.18c0.64-1.03,1.28-2.07,1.92-3.11l0.01-0.01
		c1.08-1.73,2.17-3.47,3.27-5.21h0.01c0.22-0.37,0.46-0.73,0.69-1.1c1.31-2.06,2.63-4.14,3.97-6.21c5.4-8.35,11-16.74,16.7-25.02
		c2.7-3.93,5.41-7.83,8.14-11.68c1.74-2.48,3.49-4.94,5.23-7.37c6.17-8.62,12.33-16.98,18.3-24.89
		c5.52-7.31,10.88-14.24,15.97-20.66c12.86-16.21,23.93-29.11,31.17-36.35c22.83-22.83,63.65-42.6,96.83-48.03
		c19.51-3.2,36.37-1.43,45.38,7.58C1688.73,415.7,1690.44,432.8,1687.12,452.55z"/>
	<path class="st0" d="M1544.14,612.93c-14.73,4.22-29.43,8.58-44.09,13.07c-1.04,0.32-2.08,0.64-3.12,0.96
		c-1.84,0.56-3.67,1.13-5.5,1.7c-2.89,0.89-5.77,1.78-8.65,2.69c-0.37,0.11-0.74,0.23-1.1,0.35c-0.04,0-0.07,0.01-0.1,0.03
		c-0.25,0.07-0.5,0.15-0.74,0.23c-0.17,0.05-0.34,0.1-0.51,0.16c-0.08,0.02-0.16,0.04-0.23,0.08c-0.52,0.15-1.04,0.31-1.55,0.48
		c-2.94,0.92-5.88,1.85-8.81,2.79c-0.01,0-0.02,0-0.03,0.01c-19.26,6.13-38.45,12.47-57.56,19c-0.06,0.01-0.11,0.02-0.17,0.05
		c-2.4,0.81-4.81,1.64-7.21,2.47c-0.15,0.04-0.3,0.1-0.45,0.15c-0.1,0.03-0.2,0.07-0.3,0.11c-0.75,0.25-1.51,0.51-2.26,0.78
		c-1.02,0.34-2.04,0.69-3.06,1.04c-0.78,0.28-1.56,0.54-2.33,0.81c-1.81,0.63-3.61,1.26-5.41,1.89c-0.07,0.02-0.14,0.04-0.2,0.07
		c-0.53,0.18-1.06,0.36-1.59,0.55c-12.11,4.23-24.18,8.52-36.21,12.88c-6.75,2.44-13.48,4.9-20.2,7.38
		c-1.03-2.74-1.95-5.54-2.77-8.39c-2.77-9.72-4.25-19.98-4.25-30.59c0-1.92,0.05-3.83,0.14-5.72c0.3-5.8,1.03-11.48,2.18-17.01
		c1.47-7.1,3.62-13.95,6.38-20.48c1.55-3.7,3.3-7.29,5.24-10.77c0.21-0.4,0.44-0.8,0.66-1.19h0.01c3.91-6.86,8.54-13.26,13.79-19.11
		c4.41-4.94,9.27-9.47,14.49-13.56c3.34-2.61,6.84-5.03,10.48-7.25c9.13-5.59,19.14-9.89,29.76-12.66c3.59-0.94,7.25-1.7,10.97-2.28
		c5.62-0.88,11.39-1.33,17.26-1.33c10.27,0,20.21,1.39,29.65,4c2.25,0.61,4.47,1.3,6.66,2.06c2.4,0.82,4.76,1.73,7.08,2.71
		c3.98,1.69,7.85,3.6,11.58,5.73c1.54,0.87,3.06,1.79,4.55,2.74c9.78,6.19,18.52,13.87,25.91,22.71c3.01,3.59,5.79,7.37,8.32,11.32
		c1.34,2.08,2.61,4.21,3.81,6.38c3.13,5.67,5.78,11.64,7.89,17.86C1543.12,609.52,1543.66,611.22,1544.14,612.93z"/>
</g>
<path class="st2" d="M2595.53,815.93c-1.22-6.84-2.77-13.64-4.65-20.41c-0.95-3.41-1.98-6.81-3.1-10.2
	c-28.61-86.36-114.44-165.06-301.65-213.31c-161.3-41.57-329.16-40.8-496.75-14.38c-37.55,5.92-75.09,13.12-112.54,21.43
	c-36.2,8.02-72.31,17.08-108.26,27c-5.22,1.43-10.43,2.88-15.64,4.37c-2.93,0.82-5.87,1.65-8.8,2.5
	c-14.73,4.22-29.43,8.58-44.09,13.07c-1.04,0.32-2.08,0.64-3.12,0.96c-1.84,0.56-3.67,1.13-5.5,1.7c-2.89,0.89-5.77,1.78-8.65,2.69
	c-0.37,0.11-0.74,0.23-1.1,0.35c-0.04,0-0.07,0.01-0.1,0.03c-0.25,0.07-0.5,0.15-0.74,0.23c-0.17,0.05-0.34,0.1-0.51,0.16
	c-0.08,0.02-0.16,0.04-0.23,0.08c-0.52,0.15-1.04,0.31-1.55,0.48c-2.94,0.92-5.88,1.85-8.81,2.79c-0.01,0-0.02,0-0.03,0.01
	c-19.26,6.13-38.45,12.47-57.56,19c-0.06,0.01-0.11,0.02-0.17,0.05c-2.4,0.81-4.81,1.64-7.21,2.47c-0.15,0.04-0.3,0.1-0.45,0.15
	c-0.1,0.03-0.2,0.07-0.3,0.11c-0.75,0.25-1.51,0.51-2.26,0.78c-1.02,0.34-2.04,0.69-3.06,1.04c-0.78,0.28-1.56,0.54-2.33,0.81
	c-1.81,0.63-3.61,1.26-5.41,1.89c-0.07,0.02-0.14,0.04-0.2,0.07c-0.53,0.18-1.06,0.36-1.59,0.55c-12.11,4.23-24.18,8.52-36.21,12.88
	c-6.75,2.44-13.48,4.9-20.2,7.38c-0.74,0.27-1.48,0.54-2.22,0.82c-9.27,3.42-18.51,6.87-27.73,10.36
	c-22.57,8.53-45.01,17.25-67.28,26.1c-50.18,19.94-99.55,40.57-147.91,61.36C873.34,873.41,679.1,968.61,523.9,1020.56
	c-377.67,126.42-787.48-61.73-873.77-105.04c-2.55-1.28-4.81-2.43-6.78-3.45c-1.81-0.93-3.38-1.74-4.69-2.43l-8.79-48.53
	c0,0,1.6,0.88,4.71,2.51c1.78,0.94,4.05,2.11,6.79,3.52c74.08,37.8,493.18,236.65,878.77,107.58
	c152.35-51,342.33-143.68,551.96-234.2c27.96-12.07,56.26-24.11,84.88-36c30.89-12.84,62.14-25.51,93.69-37.88
	c24.89-9.77,49.97-19.35,75.21-28.68c5.83-2.15,11.67-4.3,17.51-6.43c13.24-4.81,26.52-9.56,39.85-14.22
	c0.38-0.13,0.76-0.27,1.15-0.4c2.71-0.95,5.42-1.9,8.14-2.84c0.43-0.15,0.85-0.29,1.28-0.44c3.12-1.08,6.24-2.16,9.37-3.22
	c0.18-0.07,0.35-0.13,0.53-0.18c0.38-0.14,0.75-0.27,1.13-0.39c0.6-0.21,1.2-0.42,1.8-0.62c3.15-1.08,6.31-2.16,9.47-3.22
	c1.11-0.38,2.23-0.76,3.34-1.13c0.28-0.09,0.56-0.19,0.84-0.28c0.93-0.31,1.85-0.63,2.78-0.93c4.57-1.54,9.14-3.06,13.72-4.56
	c3.72-1.24,7.44-2.46,11.16-3.67c0.1-0.03,0.19-0.06,0.28-0.09c4-1.31,8.01-2.6,12.01-3.89c0.43-0.13,0.85-0.27,1.28-0.4
	c0.91-0.3,1.82-0.59,2.73-0.88c4.96-1.59,9.93-3.16,14.91-4.71c0.53-0.17,1.07-0.34,1.6-0.5c3.26-1.02,6.51-2.04,9.77-3.04
	c10.65-3.29,21.32-6.51,32-9.65c6.98-2.06,13.96-4.09,20.95-6.07c34.7-9.92,69.56-19.05,104.51-27.26h0.01
	c55.24-12.98,110.7-23.65,166.15-31.4c158.09-22.13,316.08-20.59,468.22,18.62c204.91,52.82,288.37,142.11,308.26,238
	c0.51,2.44,0.97,4.89,1.39,7.34C2594.58,786.21,2595.68,801.05,2595.53,815.93z"/>
<path class="st4" d="M2592.02,771.5c-0.02,8-0.41,16.02-1.14,24.02c-0.95-3.41-1.98-6.81-3.1-10.2
	c-28.61-86.36-114.44-165.06-301.65-213.31c-161.3-41.57-329.16-40.8-496.75-14.38c-37.55,5.92-75.09,13.12-112.54,21.43
	c-36.2,8.02-72.31,17.08-108.26,27c-5.22,1.43-10.43,2.88-15.64,4.37c-2.93,0.82-5.87,1.65-8.8,2.5
	c-14.73,4.22-29.43,8.58-44.09,13.07c-1.04,0.32-2.08,0.64-3.12,0.96c-1.84,0.56-3.67,1.13-5.5,1.7c-2.89,0.89-5.77,1.78-8.65,2.69
	c-0.37,0.11-0.74,0.23-1.1,0.35c-0.04,0-0.07,0.01-0.1,0.03c-0.25,0.07-0.5,0.15-0.74,0.23c-0.17,0.05-0.34,0.1-0.51,0.16
	c-0.08,0.02-0.16,0.04-0.23,0.08c-0.52,0.15-1.04,0.31-1.55,0.48c-2.94,0.92-5.88,1.85-8.81,2.79c-0.01,0-0.02,0-0.03,0.01
	c-19.26,6.13-38.45,12.47-57.56,19c-0.06,0.01-0.11,0.02-0.17,0.05c-2.4,0.81-4.81,1.64-7.21,2.47c-0.15,0.04-0.3,0.1-0.45,0.15
	c-0.1,0.03-0.2,0.07-0.3,0.11c-0.75,0.25-1.51,0.51-2.26,0.78c-1.02,0.34-2.04,0.69-3.06,1.04c-0.78,0.28-1.56,0.54-2.33,0.81
	c-1.81,0.63-3.61,1.26-5.41,1.89c-0.07,0.02-0.14,0.04-0.2,0.07c-0.53,0.18-1.06,0.36-1.59,0.55c-12.11,4.23-24.18,8.52-36.21,12.88
	c-6.75,2.44-13.48,4.9-20.2,7.38c-0.74,0.27-1.48,0.54-2.22,0.82c-9.27,3.42-18.51,6.87-27.73,10.36
	c-22.57,8.53-45.01,17.25-67.28,26.1c-50.18,19.94-99.55,40.57-147.91,61.36C873.34,873.41,679.1,968.61,523.9,1020.56
	c-377.67,126.42-787.48-61.73-873.77-105.04c-2.55-1.28-4.81-2.43-6.78-3.45l-8.77-48.45l-8.22-45.37c0,0,2.33,1.28,6.81,3.61
	c58.85,30.6,488.71,242.14,883.45,110c163.21-54.63,369.58-157.09,597.04-253.48c1.35-0.58,2.71-1.15,4.06-1.73
	c22.82-9.65,45.84-19.24,69.06-28.71h0.01c32.01-13.06,64.38-25.9,97.05-38.36c6.21-2.37,12.43-4.73,18.66-7.07
	c11.77-4.42,23.57-8.8,35.42-13.12h0.01c0.8-0.29,1.6-0.58,2.41-0.88h0.01c6.94-2.52,13.89-5.02,20.85-7.5
	c7.45-2.67,14.92-5.3,22.41-7.91c2.89-1.01,5.77-2.01,8.67-3.01c6.96-2.41,13.94-4.79,20.93-7.15c3.86-1.31,7.72-2.6,11.58-3.88
	c11.25-3.76,22.52-7.45,33.82-11.06c5.15-1.65,10.31-3.29,15.47-4.9c2.13-0.68,4.27-1.35,6.41-2.01c6.16-1.92,12.32-3.81,18.5-5.68
	c8.22-2.5,16.45-4.95,24.69-7.36c18.76-5.5,37.57-10.77,56.42-15.79c32.07-8.57,64.26-16.42,96.51-23.45h0.01
	c34.99-7.63,70.06-14.29,105.14-19.83c167.7-26.47,335.69-27.27,497.09,14.33c227.84,58.72,305.52,162.53,312.63,270.38
	C2591.87,759.61,2592.05,765.55,2592.02,771.5z"/>
<path class="st4" d="M2591.48,753.69c-0.22,3.49-0.5,6.98-0.85,10.47c-0.7,7.07-1.65,14.12-2.85,21.16
	c-28.61-86.36-114.44-165.06-301.65-213.31c-161.3-41.57-329.16-40.8-496.75-14.38c-37.55,5.92-75.09,13.12-112.54,21.43
	c-36.2,8.02-72.31,17.08-108.26,27c-5.22,1.43-10.43,2.88-15.64,4.37c-2.93,0.82-5.87,1.65-8.8,2.5
	c-14.73,4.22-29.43,8.58-44.09,13.07c-1.04,0.32-2.08,0.64-3.12,0.96c-1.84,0.56-3.67,1.13-5.5,1.7c-2.89,0.89-5.77,1.78-8.65,2.69
	c-0.37,0.11-0.74,0.23-1.1,0.35c-0.04,0-0.07,0.01-0.1,0.03c-0.25,0.07-0.5,0.15-0.74,0.23c-0.17,0.05-0.34,0.1-0.51,0.16
	c-0.08,0.02-0.16,0.04-0.23,0.08c-0.52,0.15-1.04,0.31-1.55,0.48c-2.94,0.92-5.88,1.85-8.81,2.79c-0.01,0-0.02,0-0.03,0.01
	c-19.26,6.13-38.45,12.47-57.56,19c-0.06,0.01-0.11,0.02-0.17,0.05c-2.4,0.81-4.81,1.64-7.21,2.47c-0.15,0.04-0.3,0.1-0.45,0.15
	c-0.1,0.03-0.2,0.07-0.3,0.11c-0.75,0.25-1.51,0.51-2.26,0.78c-1.02,0.34-2.04,0.69-3.06,1.04c-0.78,0.28-1.56,0.54-2.33,0.81
	c-1.81,0.63-3.61,1.26-5.41,1.89c-0.07,0.02-0.14,0.04-0.2,0.07c-0.53,0.18-1.06,0.36-1.59,0.55c-12.11,4.23-24.18,8.52-36.21,12.88
	c-6.75,2.44-13.48,4.9-20.2,7.38c-0.74,0.27-1.48,0.54-2.22,0.82c-9.27,3.42-18.51,6.87-27.73,10.36
	c-22.57,8.53-45.01,17.25-67.28,26.1c-50.18,19.94-99.55,40.57-147.91,61.36C873.34,873.41,679.1,968.61,523.9,1020.56
	c-377.67,126.42-787.48-61.73-873.77-105.04l-8.76-48.38l-8.2-45.28l-6.81-37.61c0,0,465.47,255.81,890.26,113.61
	c159.07-53.25,359.15-151.93,579.79-246.14c18.39-7.86,36.92-15.68,55.58-23.44c39.61-16.48,79.8-32.69,120.48-48.35h0.01
	c0.12-0.04,0.23-0.09,0.35-0.13c23.72-9.13,47.6-18.08,71.63-26.78c3.97-1.44,7.94-2.87,11.93-4.3h0.01
	c7.13-2.56,14.28-5.09,21.44-7.61c9.28-3.25,18.57-6.46,27.88-9.62c5.32-1.82,10.64-3.62,15.97-5.39
	c15.73-5.28,31.51-10.42,47.34-15.41c7.07-2.24,14.16-4.45,21.25-6.63c4.64-1.42,9.28-2.83,13.93-4.23
	c33.5-10.1,67.16-19.51,100.94-28.11c27.26-6.94,54.59-13.36,81.97-19.17c198.85-42.23,399.94-52.67,591.73-3.24
	C2530.57,514.19,2599.01,634.1,2591.48,753.69z"/>
<g class="st5">
	<g class="st6">
		<g>
			<path class="st2" d="M989.35,96.87c-2.23-2.76-5.04-4.89-8.42-6.4c-1.46-0.65-1.64-2.65-0.3-3.52c2.37-1.54,4.34-3.46,5.9-5.77
				c2.36-3.49,3.54-7.34,3.54-11.58c0-2.59-0.5-5.15-1.51-7.7c-1.01-2.55-2.43-4.82-4.26-6.82c-1.84-2-4.07-3.62-6.69-4.88
				c-2.62-1.25-5.55-1.88-8.78-1.88h-36.12c-4.81,0-8.71,3.9-8.71,8.71v66.03c0,4.81,3.9,8.71,8.71,8.71h35.21
				c3.58,0,6.95-0.53,10.09-1.59c3.15-1.06,5.9-2.54,8.26-4.46c2.36-1.92,4.24-4.19,5.64-6.82c1.4-2.62,2.1-5.5,2.1-8.64
				C994,105.17,992.45,100.7,989.35,96.87z M944.49,64.6c10.56-2.55,24.42,3.39,21.55,12.09c-2.87,8.71-32.32,12.99-32.32,12.99
				S934.57,67,944.49,64.6z M946.73,117.88c-1.17,2.72-21.77,9.3-13.76-20.01C932.97,97.87,947.9,115.17,946.73,117.88z
				 M933.76,93.03c0,0,33.21-10.02,45.44,2.12C991.44,107.29,970.61,145.86,933.76,93.03z"/>
		</g>
	</g>
	<g class="st6">
		<text transform="matrix(1 0 0 1 628.1733 208.0243)" class="st1 st7 st8">Home</text>
		<text transform="matrix(1 0 0 1 775.1733 208.0243)" class="st1 st7 st8">About Us</text>
		<text transform="matrix(1 0 0 1 972.1733 208.0243)" class="st1 st7 st8">Work</text>
	</g>
	<text transform="matrix(1 0 0 1 1100.4526 207.962)" class="st9 st10 st8">Join the Fam</text>
	<path class="st9" d="M686,226h-42c-1.66,0-3-1.34-3-3l0,0c0-1.66,1.34-3,3-3h42c1.66,0,3,1.34,3,3l0,0
		C689,224.66,687.66,226,686,226z"/>
	<g class="st6">
		<g>
			<text transform="matrix(1 0 0 1 121.3057 400.1865)"><tspan x="0" y="0" class="st2 st11 st12">Blossom</tspan><tspan x="273.28" y="0" class="st2 st13 st12 st14">D</tspan><tspan x="319.29" y="0" class="st2 st13 st12 st14">A</tspan><tspan x="362.63" y="0" class="st2 st13 st12">O</tspan></text>
		</g>
	</g>
	<text transform="matrix(1 0 0 1 116.9695 476.5819)" class="st15 st7 st12">is a Family</text>
	<text transform="matrix(1 0 0 1 124.3745 559.0762)" class="st6"><tspan x="0" y="0" class="st1 st16 st17">We Build Together </tspan><tspan x="0" y="40" class="st1 st16 st17">We Bloom Together</tspan></text>
	<path class="st9" d="M340.88,756.38H150.12c-14.43,0-26.12-11.7-26.12-26.12v-29.52c0-14.43,11.7-26.12,26.12-26.12h190.76
		c14.43,0,26.12,11.7,26.12,26.12v29.52C367,744.69,355.3,756.38,340.88,756.38z"/>
	<text transform="matrix(1 0 0 1 182.0566 729.1074)" class="st18 st7 st19">Hire Us</text>
</g>
<g>
	<path class="st3" d="M945.03,916.98c-25.73-12.03-128.1-79.61-118.78-99.54c9.32-19.93,126.81,15.32,152.53,27.35
		c25.73,12.03,55.98,49.13,47.91,66.4C1018.61,928.46,970.74,929.01,945.03,916.98z"/>
	<path class="st3" d="M769.24,920.79c12.04-25.72,79.61-128.09,99.54-118.77c19.93,9.32-15.32,126.81-27.35,152.54
		c-12.03,25.72-49.13,55.98-66.39,47.91C757.78,994.38,757.22,946.51,769.24,920.79z"/>
	<path class="st3" d="M941.22,741.21c-12.03,25.73-79.61,128.1-99.54,118.78c-19.93-9.32,15.33-126.81,27.35-152.54
		c12.03-25.71,49.13-55.98,66.4-47.91C952.69,667.61,953.25,715.49,941.22,741.21z"/>
	<path class="st3" d="M857.92,955.29c-9.68-26.7-34.29-146.87-13.6-154.37c20.69-7.5,78.85,100.51,88.52,127.2
		c9.68,26.69,4.84,74.33-13.07,80.83C901.85,1015.44,867.61,981.98,857.92,955.29z"/>
	<path class="st3" d="M852.55,706.71c9.68,26.7,34.29,146.87,13.59,154.38c-20.69,7.5-78.84-100.51-88.51-127.2
		c-9.68-26.69-4.85-74.33,13.07-80.83C808.62,646.56,842.86,680.02,852.55,706.71z"/>
	<path class="st3" d="M730.95,833.69c26.69-9.68,146.87-34.29,154.37-13.6c7.5,20.68-100.51,78.84-127.2,88.52
		c-26.69,9.68-74.33,4.84-80.83-13.08C670.79,877.61,704.25,843.37,730.95,833.69z"/>
	<path class="st3" d="M762.54,766.31c26.59,9.97,133.96,69.29,126.24,89.89c-7.73,20.61-127.63-5.3-154.22-15.27
		c-26.59-9.97-59.67-44.58-52.98-62.43C688.27,760.65,735.95,756.34,762.54,766.31z"/>
	<path class="st3" d="M979.52,828.31c-26.69,9.68-146.87,34.28-154.37,13.6c-7.51-20.7,100.51-78.84,127.2-88.52
		c26.69-9.68,74.33-4.85,80.83,13.08C1039.68,784.38,1006.22,818.63,979.52,828.31z"/>
	<path class="st2" d="M955.36,874.85c-24.64,0-129.95-15.48-129.95-34.58c0-19.1,105.31-34.58,129.95-34.58
		c24.64,0,62.07,18.03,62.07,34.58C1017.42,856.81,979.99,874.85,955.36,874.85z"/>
	<path class="st2" d="M750.99,805.69c24.64,0,129.95,15.48,129.95,34.58c0,19.09-105.31,34.58-129.95,34.58
		c-24.64,0-62.06-18.04-62.06-34.58C688.93,823.73,726.35,805.69,750.99,805.69z"/>
	<path class="st2" d="M818.6,942.45c0-24.64,15.48-129.95,34.58-129.95c19.1,0,34.58,105.3,34.58,129.95
		c0,24.64-18.04,62.06-34.58,62.06C836.63,1004.52,818.6,967.09,818.6,942.45z"/>
	<path class="st2" d="M887.75,738.09c0,24.64-15.48,129.95-34.58,129.95c-19.1,0-34.58-105.32-34.58-129.95
		c0-24.64,18.04-62.07,34.58-62.07C869.72,676.02,887.75,713.45,887.75,738.09z"/>
	<path class="st2" d="M900.98,936.97c-17.42-17.43-80.94-102.84-67.44-116.34c13.5-13.5,98.92,50.02,116.34,67.44
		c17.42,17.42,31.13,56.64,19.43,68.33C957.62,968.1,918.4,954.39,900.98,936.97z"/>
	<path class="st2" d="M805.37,743.56c17.42,17.42,80.94,102.83,67.44,116.34c-13.51,13.5-98.91-50.02-116.34-67.44
		c-17.42-17.43-31.14-56.64-19.44-68.34C748.73,712.43,787.95,726.14,805.37,743.56z"/>
	<path class="st2" d="M756.47,888.08c17.43-17.42,102.83-80.94,116.34-67.44c13.5,13.5-50.02,98.91-67.44,116.34
		c-17.42,17.42-56.64,31.13-68.33,19.44C725.33,944.71,739.05,905.49,756.47,888.08z"/>
	<path class="st2" d="M949.88,792.47c-17.43,17.42-102.84,80.94-116.34,67.44c-13.51-13.51,50.01-98.92,67.44-116.34
		c17.42-17.42,56.64-31.13,68.34-19.44C981.02,735.82,967.3,775.04,949.88,792.47z"/>
	<path class="st0" d="M852.77,891.56c-29.56,0-53.52-23.96-53.52-53.51c0-29.56,23.96-53.51,53.52-53.51
		c29.55,0,53.51,23.96,53.51,53.51C906.28,867.6,882.32,891.56,852.77,891.56z"/>
</g>
<g>
	<path class="st3" d="M966.98,507.46c-15.4-7.2-76.67-47.65-71.09-59.58c5.58-11.93,75.91,9.17,91.3,16.37
		c15.4,7.2,33.51,29.41,28.68,39.75C1011.03,514.34,982.37,514.66,966.98,507.46z"/>
	<path class="st3" d="M861.76,509.74c7.2-15.4,47.65-76.67,59.58-71.09c11.93,5.58-9.17,75.9-16.37,91.3
		c-7.2,15.4-29.41,33.51-39.74,28.67C854.9,553.79,854.57,525.14,861.76,509.74z"/>
	<path class="st3" d="M964.7,402.26c-7.2,15.4-47.65,76.67-59.58,71.09c-11.93-5.58,9.17-75.91,16.37-91.3
		c7.2-15.39,29.41-33.51,39.74-28.67C971.57,358.2,971.9,386.86,964.7,402.26z"/>
	<path class="st3" d="M914.84,530.39c-5.79-15.98-20.52-87.91-8.14-92.4c12.38-4.49,47.19,60.16,52.99,76.13
		c5.79,15.97,2.9,44.49-7.82,48.38C941.13,566.4,920.64,546.37,914.84,530.39z"/>
	<path class="st3" d="M911.63,381.6c5.79,15.98,20.52,87.91,8.14,92.4c-12.38,4.49-47.19-60.16-52.98-76.14
		c-5.8-15.98-2.9-44.49,7.82-48.38C885.33,345.6,905.83,365.63,911.63,381.6z"/>
	<path class="st3" d="M838.84,457.61c15.98-5.8,87.91-20.52,92.4-8.14c4.49,12.38-60.16,47.19-76.14,52.98
		c-15.98,5.79-44.49,2.9-48.38-7.83C802.84,483.9,822.86,463.4,838.84,457.61z"/>
	<path class="st3" d="M857.75,417.28c15.91,5.97,80.18,41.47,75.56,53.8c-4.63,12.34-76.39-3.18-92.31-9.14
		c-15.91-5.97-35.72-26.69-31.71-37.37C813.3,413.89,841.84,411.31,857.75,417.28z"/>
	<path class="st3" d="M987.63,454.39c-15.98,5.8-87.91,20.52-92.4,8.14c-4.5-12.39,60.16-47.19,76.14-52.99
		c15.97-5.79,44.49-2.9,48.38,7.83C1023.63,428.1,1003.61,448.6,987.63,454.39z"/>
	<path class="st2" d="M973.16,482.24c-14.75,0-77.78-9.27-77.78-20.7c0-11.43,63.03-20.7,77.78-20.7c14.75,0,37.15,10.79,37.15,20.7
		C1010.31,471.45,987.91,482.24,973.16,482.24z"/>
	<path class="st2" d="M850.84,440.85c14.75,0,77.78,9.27,77.78,20.7c0,11.43-63.03,20.7-77.78,20.7c-14.75,0-37.15-10.8-37.15-20.7
		C813.69,451.65,836.09,440.85,850.84,440.85z"/>
	<path class="st2" d="M891.31,522.71c0-14.75,9.27-77.78,20.7-77.78c11.43,0,20.7,63.03,20.7,77.78c0,14.75-10.8,37.15-20.7,37.15
		C902.1,559.86,891.31,537.46,891.31,522.71z"/>
	<path class="st2" d="M932.7,400.39c0,14.75-9.27,77.78-20.7,77.78c-11.43,0-20.7-63.04-20.7-77.78c0-14.75,10.8-37.15,20.7-37.15
		C921.9,363.24,932.7,385.64,932.7,400.39z"/>
	<path class="st2" d="M940.61,519.43c-10.43-10.43-48.45-61.55-40.36-69.63c8.08-8.08,59.21,29.94,69.64,40.37
		c10.43,10.43,18.64,33.9,11.63,40.9C974.52,538.06,951.04,529.86,940.61,519.43z"/>
	<path class="st2" d="M883.39,403.67c10.43,10.43,48.45,61.55,40.37,69.63c-8.08,8.08-59.2-29.94-69.63-40.36
		c-10.43-10.43-18.64-33.9-11.63-40.9C849.48,385.03,872.96,393.24,883.39,403.67z"/>
	<path class="st2" d="M854.12,490.16c10.43-10.43,61.55-48.45,69.63-40.37c8.08,8.08-29.94,59.2-40.37,69.63
		c-10.43,10.43-33.9,18.63-40.9,11.63C835.48,524.06,843.69,500.59,854.12,490.16z"/>
	<path class="st2" d="M969.89,432.94c-10.43,10.43-61.55,48.45-69.64,40.36c-8.09-8.08,29.94-59.21,40.36-69.63
		c10.43-10.43,33.9-18.64,40.9-11.64C988.52,399.03,980.31,422.51,969.89,432.94z"/>
	<path class="st0" d="M911.76,492.25c-17.69,0-32.03-14.34-32.03-32.03c0-17.69,14.34-32.03,32.03-32.03
		c17.69,0,32.03,14.34,32.03,32.03C943.79,477.91,929.45,492.25,911.76,492.25z"/>
</g>
</svg>
